#!OML:ASF F:\VICON\USERDATA\INSTALL\rory3\rory3.ASF
:FULLY-SPECIFIED
:DEGREES
588
root 4.79085 16.1405 -8.4696 29.4842 -44.7661 -6.72792
lowerback -4.26187 -1.6551 -6.01842
upperback -18.3513 -2.9075 3.77977
thorax -18.1046 -0.28139 8.15287
lowerneck -5.02719 10.1857 3.29776
upperneck 4.06598 12.5839 15.2803
head 1.34152 6.65775 4.78179
rclavicle -1.16165e-014 1.32192e-014
rhumerus -51.1107 -35.0146 17.9763
rradius 17.6008
rwrist 21.8947
rhand -7.1523 15.7491
rfingers 7.12502
rthumb 18.7243 -13.3698
lclavicle -1.16165e-014 1.32192e-014
lhumerus 64.0684 11.2555 19.0993
lradius 34.9622
lwrist -20.6031
lhand -4.2106 19.3972
lfingers 7.12502
lthumb 21.5517 48.218
rfemur 153.655 -188.991 -146.599
rtibia 32.4026
rfoot -48.9541 -31.1247
rtoes 26.8681
lfemur -99.2817 29.1946 -50.0243
ltibia 62.2772
lfoot 40.2278 32.6888
ltoes 9.51287
589
root 4.79189 16.1355 -8.47334 29.7813 -44.7215 -6.88716
lowerback -4.22459 -1.73628 -6.07377
upperback -18.534 -3.02454 3.97348
thorax -18.3601 -0.288471 8.44902
lowerneck -4.6935 10.2941 2.79319
upperneck 3.49298 12.8636 15.6597
head 1.00934 6.75013 4.94607
rclavicle 1.91967e-014 -3.27094e-014
rhumerus -50.9536 -34.9976 17.8668
rradius 17.3266
rwrist 22.0192
rhand -5.16556 13.4492
rfingers 7.12502
rthumb 20.6343 -15.474
lclavicle 1.91967e-014 -3.27094e-014
lhumerus 65.3766 12.2148 21.5606
lradius 34.6224
lwrist -21.5644
lhand -4.25127 19.7277
lfingers 7.12502
lthumb 21.5127 48.5531
rfemur 153.392 -188.421 -146.403
rtibia 32.48
rfoot -48.5702 -30.5549
rtoes 27.0906
lfemur -99.5899 29.1241 -50.0483
ltibia 62.3319
lfoot 40.3108 32.391
ltoes 8.65587
590
root 4.79169 16.1317 -8.47607 30.0045 -44.7077 -7.07991
lowerback -4.15519 -1.75856 -6.05548
upperback -18.6267 -3.06561 4.0084
thorax -18.5297 -0.295053 8.50036
lowerneck -4.40611 10.2912 2.96543
upperneck 2.89129 12.9532 15.5222
head 0.773467 6.74539 4.81606
rclavicle -1.57816e-014 -6.87298e-014
rhumerus -51.1071 -34.8838 17.686
rradius 17.0742
rwrist 22.3046
rhand -3.41089 11.3619
rfingers 7.12502
rthumb 22.3196 -17.369
lclavicle -1.57816e-014 -6.87298e-014
lhumerus 66.9221 12.9329 23.4121
lradius 34.1815
lwrist -22.0735
lhand -5.28451 20.2049
lfingers 7.12502
lthumb 20.52 49.1404
rfemur 153.27 -188.328 -146.253
rtibia 32.5101
rfoot -48.5321 -30.2971
rtoes 27.0455
lfemur -99.7622 29.1063 -49.9418
ltibia 62.402
lfoot 40.2966 32.5588
ltoes 9.20315
591
root 4.7902 16.1261 -8.4748 30.2435 -44.8337 -7.24152
lowerback -4.23893 -1.73283 -6.00474
upperback -18.6641 -3.0403 3.91398
thorax -18.5348 -0.304217 8.3542
lowerneck -4.24972 10.2273 3.42968
upperneck 2.39103 12.9191 15.1758
head 0.640037 6.68907 4.58056
rclavicle -5.32867e-014 -5.0541e-014
rhumerus -51.5386 -34.8486 17.5053
rradius 16.774
rwrist 22.823
rhand -1.70011 9.67513
rfingers 7.12502
rthumb 23.961 -18.8497
lclavicle -5.32867e-014 -5.0541e-014
lhumerus 68.3896 13.4655 24.464
lradius 33.6217
lwrist -22.2329
lhand -6.97002 20.2508
lfingers 7.12502
lthumb 18.8997 49.3526
rfemur 153.121 -188.17 -146.149
rtibia 32.5241
rfoot -47.8356 -30.721
rtoes 25.4161
lfemur -100.026 29.1794 -49.9846
ltibia 62.4926
lfoot 40.216 32.8118
ltoes 10.4014
592
root 4.79073 16.1203 -8.47405 30.3168 -45.0092 -7.25546
lowerback -4.21923 -1.72732 -6.07577
upperback -18.6991 -3.05189 3.85496
thorax -18.5979 -0.30214 8.33071
lowerneck -4.4008 10.2849 3.46421
upperneck 2.34391 12.982 15.2956
head 0.640523 6.72444 4.62586
rclavicle -3.18304e-014 -1.21259e-013
rhumerus -52.733 -36.1363 18.9225
rradius 16.4791
rwrist 25.0371
rhand 0.482484 8.47742
rfingers 7.12502
rthumb 26.0524 -19.7561
lclavicle -3.18304e-014 -1.21259e-013
lhumerus 69.6737 13.9802 25.5432
lradius 33.1797
lwrist -22.4837
lhand -7.46699 20.3704
lfingers 7.12502
lthumb 18.4216 49.5182
rfemur 152.955 -187.885 -146.13
rtibia 32.6077
rfoot -46.5239 -31.9006
rtoes 22.3261
lfemur -100.16 29.2534 -50.0814
ltibia 62.4905
lfoot 40.1087 33.0249
ltoes 10.7929
